<svg xmlns="http://www.w3.org/2000/svg" viewBox="0 0 400 520" preserveAspectRatio="xMidYMid slice">
  <defs>
    <linearGradient id="bg" x1="0" y1="0" x2="1" y2="1">
      <stop offset="0" stop-color="#000000"/>
      <stop offset="0.55" stop-color="#171717"/>
      <stop offset="1" stop-color="#262626"/>
    </linearGradient>
    <linearGradient id="card" x1="0" y1="0" x2="0" y2="1">
      <stop offset="0" stop-color="#ffffff"/>
      <stop offset="1" stop-color="#f5f5f5"/>
    </linearGradient>
    <filter id="shadow" x="-60%" y="-60%" width="220%" height="220%">
      <feDropShadow dx="0" dy="10" stdDeviation="14" flood-color="#000000" flood-opacity="0.5"/>
    </filter>
    <radialGradient id="glow" cx="50%" cy="38%" r="58%">
      <stop offset="0" stop-color="#ffffff" stop-opacity="0.13"/>
      <stop offset="1" stop-color="#ffffff" stop-opacity="0"/>
    </radialGradient>
  </defs>

  <rect width="400" height="520" fill="url(#bg)"/>
  <rect width="400" height="520" fill="url(#glow)"/>

  <circle cx="330" cy="64" r="140" fill="#ffffff" opacity="0.05"/>
  <circle cx="56" cy="470" r="120" fill="#ffffff" opacity="0.04"/>

  <g opacity="0.08" stroke="#ffffff" stroke-width="1">
    <line x1="0" y1="130" x2="400" y2="130"/>
    <line x1="0" y1="260" x2="400" y2="260"/>
    <line x1="0" y1="390" x2="400" y2="390"/>
    <line x1="100" y1="0" x2="100" y2="520"/>
    <line x1="200" y1="0" x2="200" y2="520"/>
    <line x1="300" y1="0" x2="300" y2="520"/>
  </g>

  <g filter="url(#shadow)">
    <rect x="52" y="96" width="296" height="200" rx="16" fill="url(#card)"/>
    <circle cx="200" cy="152" r="38" fill="#171717"/>
    <circle cx="200" cy="140" r="14" fill="#ffffff"/>
    <path d="M170 178c3-22 14-32 30-32s27 10 30 32" fill="#ffffff"/>
    <rect x="126" y="208" width="148" height="10" rx="5" fill="#d4d4d4"/>
    <rect x="160" y="228" width="80" height="7" rx="3.5" fill="#e5e5e5"/>
    <rect x="150" y="252" width="100" height="20" rx="10" fill="#262626"/>
    <rect x="168" y="259" width="64" height="6" rx="3" fill="#ffffff" opacity="0.85"/>
  </g>

  <g filter="url(#shadow)">
    <circle cx="322" cy="124" r="22" fill="#171717"/>
    <path d="M312 124h20M322 114v20" stroke="#ffffff" stroke-width="3.5" fill="none" stroke-linecap="round"/>
  </g>

  <g filter="url(#shadow)">
    <rect x="70" y="326" width="170" height="104" rx="14" fill="url(#card)"/>
    <rect x="78" y="344" width="54" height="8" rx="4" fill="#a3a3a3"/>
    <rect x="78" y="358" width="140" height="18" rx="6" fill="#e5e5e5"/>
    <rect x="78" y="386" width="54" height="8" rx="4" fill="#a3a3a3"/>
    <rect x="78" y="400" width="140" height="18" rx="6" fill="#e5e5e5"/>
  </g>

  <g filter="url(#shadow)">
    <circle cx="290" cy="368" r="26" fill="#262626"/>
    <path d="M280 368l7 7 14-14" stroke="#ffffff" stroke-width="3.5" fill="none" stroke-linecap="round" stroke-linejoin="round"/>
  </g>


</svg>
